<svg width="1203" height="763" viewBox="0 0 1203 763" fill="none" xmlns="http://www.w3.org/2000/svg">
<mask id="mask0_1_371" style="mask-type:luminance" maskUnits="userSpaceOnUse" x="387" y="0" width="390" height="350">
<path d="M387.988 0H776.689V349.141H387.988V0Z" fill="white"/>
</mask>
<g mask="url(#mask0_1_371)">
<mask id="mask1_1_371" style="mask-type:luminance" maskUnits="userSpaceOnUse" x="387" y="0" width="389" height="350">
<path d="M775.391 11.25V337.891C775.391 340.879 774.209 343.741 772.1 345.85C769.99 347.959 767.129 349.141 764.141 349.141H399.238C396.26 349.141 393.398 347.959 391.289 345.85C389.18 343.741 387.988 340.879 387.988 337.891V11.25C387.988 8.262 389.18 5.40102 391.289 3.29102C393.398 1.18202 396.26 0 399.238 0H764.141C767.129 0 769.99 1.18202 772.1 3.29102C774.209 5.40102 775.391 8.262 775.391 11.25Z" fill="white"/>
</mask>
<g mask="url(#mask1_1_371)">
<mask id="mask2_1_371" style="mask-type:luminance" maskUnits="userSpaceOnUse" x="387" y="-3" width="391" height="354">
<path d="M777.5 -2.27499H387.5V350.225H777.5V-2.27499Z" fill="white"/>
</mask>
<g mask="url(#mask2_1_371)">
<mask id="mask3_1_371" style="mask-type:luminance" maskUnits="userSpaceOnUse" x="387" y="0" width="389" height="350">
<path d="M387.988 0H775.801V349.141H387.988V0Z" fill="white"/>
</mask>
<g mask="url(#mask3_1_371)">
<mask id="mask4_1_371" style="mask-type:luminance" maskUnits="userSpaceOnUse" x="387" y="0" width="389" height="350">
<path d="M775.391 11.25V337.891C775.391 340.879 774.209 343.741 772.1 345.85C769.99 347.959 767.129 349.141 764.141 349.141H399.238C396.26 349.141 393.398 347.959 391.289 345.85C389.18 343.741 387.988 340.879 387.988 337.891V11.25C387.988 8.262 389.18 5.40102 391.289 3.29102C393.398 1.18202 396.26 0 399.238 0H764.141C767.129 0 769.99 1.18202 772.1 3.29102C774.209 5.40102 775.391 8.262 775.391 11.25Z" fill="white"/>
</mask>
<g mask="url(#mask4_1_371)">
<path d="M387.988 0H775.322V349.141H387.988V0Z" fill="#284D97"/>
</g>
</g>
</g>
</g>
</g>
<mask id="mask5_1_371" style="mask-type:luminance" maskUnits="userSpaceOnUse" x="424" y="32" width="316" height="285">
<path d="M424.512 32.94H739.717V316.084H424.512V32.94Z" fill="white"/>
</mask>
<g mask="url(#mask5_1_371)">
<mask id="mask6_1_371" style="mask-type:luminance" maskUnits="userSpaceOnUse" x="424" y="32" width="315" height="285">
<path d="M738.877 44.19V304.834C738.877 311.045 733.838 316.084 727.627 316.084H435.762C429.541 316.084 424.512 311.045 424.512 304.834V44.19C424.512 37.979 429.541 32.94 435.762 32.94H727.627C733.838 32.94 738.877 37.979 738.877 44.19Z" fill="white"/>
</mask>
<g mask="url(#mask6_1_371)">
<mask id="mask7_1_371" style="mask-type:luminance" maskUnits="userSpaceOnUse" x="422" y="32" width="318" height="286">
<path d="M740 32.725H422.5V317.725H740V32.725Z" fill="white"/>
</mask>
<g mask="url(#mask7_1_371)">
<mask id="mask8_1_371" style="mask-type:luminance" maskUnits="userSpaceOnUse" x="424" y="32" width="316" height="285">
<path d="M424.512 32.94H739.199V316.084H424.512V32.94Z" fill="white"/>
</mask>
<g mask="url(#mask8_1_371)">
<mask id="mask9_1_371" style="mask-type:luminance" maskUnits="userSpaceOnUse" x="424" y="32" width="315" height="285">
<path d="M738.877 44.19V304.834C738.877 311.045 733.838 316.084 727.627 316.084H435.762C429.541 316.084 424.512 311.045 424.512 304.834V44.19C424.512 37.979 429.541 32.94 435.762 32.94H727.627C733.838 32.94 738.877 37.979 738.877 44.19Z" fill="white"/>
</mask>
<g mask="url(#mask9_1_371)">
<path d="M424.512 32.94H738.613V316.084H424.512V32.94Z" fill="#284D97"/>
</g>
</g>
</g>
</g>
</g>
<mask id="mask10_1_371" style="mask-type:luminance" maskUnits="userSpaceOnUse" x="424" y="32" width="316" height="285">
<path d="M424.512 32.989H739.229V316.065H424.512V32.989Z" fill="white"/>
</mask>
<g mask="url(#mask10_1_371)">
<mask id="mask11_1_371" style="mask-type:luminance" maskUnits="userSpaceOnUse" x="424" y="32" width="315" height="285">
<path d="M738.867 44.239V304.864C738.867 311.075 733.828 316.114 727.617 316.114H435.762C429.541 316.114 424.512 311.075 424.512 304.864V44.239C424.512 38.028 429.541 32.989 435.762 32.989H727.617C733.828 32.989 738.867 38.028 738.867 44.239Z" fill="white"/>
</mask>
<g mask="url(#mask11_1_371)">
<path d="M738.867 44.239V304.864C738.867 311.075 733.828 316.114 727.617 316.114H435.762C429.541 316.114 424.512 311.075 424.512 304.864V44.239C424.512 38.028 429.541 32.989 435.762 32.989H727.617C733.828 32.989 738.867 38.028 738.867 44.239Z" stroke="white" stroke-width="18"/>
</g>
</g>
<path d="M435.41 198.897L623.028 50.02" stroke="white" stroke-width="13"/>
<path d="M564.746 302.188L723.721 143.213" stroke="white" stroke-width="13"/>
<mask id="mask12_1_371" style="mask-type:luminance" maskUnits="userSpaceOnUse" x="17" y="680" width="1128" height="83">
<path d="M1145 680.225H17.5V762.725H1145V680.225Z" fill="white"/>
</mask>
<g mask="url(#mask12_1_371)">
<path d="M42.798 699.315C48.521 699.315 53.013 700.695 56.275 703.455C59.556 706.185 61.196 709.965 61.196 714.775C61.196 719.575 59.556 723.335 56.275 726.065C53.013 728.805 48.521 730.175 42.798 730.175H30.689V744.385H25.923V699.315H42.798ZM42.642 725.995C47.114 725.995 50.532 725.015 52.876 723.065C55.239 721.105 56.431 718.355 56.431 714.775C56.431 711.135 55.239 708.335 52.876 706.385C50.532 704.425 47.114 703.455 42.642 703.455H30.689V725.995H42.642Z" fill="#6B7280"/>
<path d="M99.8209 728.885H71.4999C71.7539 732.395 73.1119 735.235 75.5629 737.395C78.0039 739.565 81.0899 740.635 84.8209 740.635C86.9299 740.635 88.8539 740.275 90.6019 739.545C92.3689 738.795 93.8929 737.685 95.1719 736.225L97.7499 739.195C96.2659 740.995 94.3909 742.355 92.1249 743.295C89.8599 744.235 87.3789 744.705 84.7029 744.705C81.2069 744.705 78.1209 743.975 75.4459 742.515C72.7599 741.025 70.6599 738.975 69.1569 736.345C67.6719 733.715 66.9299 730.755 66.9299 727.475C66.9299 724.175 67.6429 721.215 69.0779 718.605C70.5039 715.985 72.4769 713.935 74.9769 712.475C77.4959 711.015 80.3279 710.285 83.4529 710.285C86.5979 710.285 89.4099 711.015 91.8909 712.475C94.3909 713.935 96.3439 715.975 97.7499 718.565C99.1759 721.145 99.8989 724.115 99.8989 727.475L99.8209 728.885ZM83.4529 714.195C80.1919 714.195 77.4569 715.235 75.2499 717.315C73.0339 719.405 71.7839 722.115 71.4999 725.445H95.5239C95.2109 722.115 93.9419 719.405 91.7349 717.315C89.5179 715.235 86.7539 714.195 83.4529 714.195Z" fill="#6B7280"/>
<path d="M113.584 717.165C114.648 714.895 116.25 713.195 118.389 712.045C120.518 710.875 123.154 710.285 126.279 710.285V714.705L125.186 714.665C121.611 714.665 118.818 715.755 116.787 717.945C114.775 720.135 113.779 723.195 113.779 727.125V744.385H109.209V710.525H113.584V717.165Z" fill="#6B7280"/>
<path d="M146.233 700.175C144.251 700.175 142.757 700.705 141.741 701.775C140.745 702.845 140.257 704.425 140.257 706.535V710.525H150.686V714.385H140.374V744.385H135.803V714.385H129.749V710.525H135.803V706.345C135.803 703.245 136.682 700.795 138.46 698.995C140.257 697.205 142.776 696.305 146.038 696.305C147.307 696.305 148.548 696.485 149.749 696.855C150.969 697.225 151.985 697.735 152.796 698.415L151.233 701.855C149.905 700.735 148.235 700.175 146.233 700.175Z" fill="#6B7280"/>
<path d="M170.093 744.705C166.831 744.705 163.892 743.975 161.265 742.515C158.657 741.025 156.597 738.975 155.093 736.345C153.609 733.715 152.866 730.755 152.866 727.475C152.866 724.175 153.609 721.215 155.093 718.605C156.597 715.985 158.657 713.935 161.265 712.475C163.892 711.015 166.831 710.285 170.093 710.285C173.374 710.285 176.314 711.015 178.921 712.475C181.548 713.935 183.589 715.985 185.054 718.605C186.538 721.215 187.28 724.175 187.28 727.475C187.28 730.755 186.538 733.715 185.054 736.345C183.589 738.975 181.548 741.025 178.921 742.515C176.314 743.975 173.374 744.705 170.093 744.705ZM170.093 740.635C172.515 740.635 174.673 740.095 176.577 738.995C178.472 737.905 179.956 736.365 181.03 734.355C182.124 732.315 182.671 730.035 182.671 727.475C182.671 724.895 182.124 722.615 181.03 720.605C179.956 718.565 178.472 717.005 176.577 715.915C174.673 714.815 172.515 714.275 170.093 714.275C167.691 714.275 165.542 714.815 163.648 715.915C161.743 717.005 160.23 718.565 159.116 720.605C158.023 722.615 157.476 724.895 157.476 727.475C157.476 730.035 158.023 732.315 159.116 734.355C160.23 736.365 161.743 737.905 163.648 738.995C165.542 740.095 167.691 740.635 170.093 740.635Z" fill="#6B7280"/>
<path d="M201.001 717.165C202.065 714.895 203.667 713.195 205.806 712.045C207.935 710.875 210.571 710.285 213.696 710.285V714.705L212.603 714.665C209.028 714.665 206.235 715.755 204.204 717.945C202.192 720.135 201.196 723.195 201.196 727.125V744.385H196.626V710.525H201.001V717.165Z" fill="#6B7280"/>
<path d="M264.151 710.285C268.389 710.285 271.729 711.515 274.151 713.955C276.592 716.385 277.822 719.975 277.822 724.745V744.385H273.252V725.205C273.252 721.695 272.393 719.015 270.674 717.165C268.975 715.315 266.592 714.385 263.526 714.385C260.01 714.385 257.236 715.475 255.205 717.635C253.193 719.795 252.197 722.785 252.197 726.615V744.385H247.627V725.205C247.627 721.695 246.777 719.015 245.088 717.165C243.389 715.315 240.967 714.385 237.822 714.385C234.356 714.385 231.592 715.475 229.541 717.635C227.51 719.795 226.494 722.785 226.494 726.615V744.385H221.924V710.525H226.299V716.695C227.49 714.645 229.16 713.065 231.299 711.965C233.457 710.855 235.928 710.285 238.721 710.285C241.553 710.285 244.014 710.895 246.104 712.085C248.184 713.285 249.736 715.055 250.752 717.395C252.002 715.185 253.799 713.455 256.143 712.205C258.486 710.935 261.152 710.285 264.151 710.285Z" fill="#6B7280"/>
<path d="M302.058 710.285C306.482 710.285 309.871 711.405 312.215 713.605C314.578 715.795 315.769 719.065 315.769 723.415V744.385H311.394V739.115C310.379 740.865 308.865 742.235 306.863 743.215C304.881 744.215 302.508 744.705 299.754 744.705C295.974 744.705 292.967 743.805 290.73 742.005C288.514 740.205 287.41 737.825 287.41 734.855C287.41 731.995 288.435 729.695 290.496 727.945C292.576 726.175 295.896 725.285 300.457 725.285H311.199V723.215C311.199 720.305 310.379 718.095 308.738 716.575C307.117 715.045 304.754 714.275 301.629 714.275C299.461 714.275 297.39 714.625 295.418 715.325C293.465 716.025 291.765 717.005 290.34 718.255L288.308 714.855C290.027 713.405 292.078 712.275 294.48 711.495C296.873 710.695 299.402 710.285 302.058 710.285ZM300.457 741.105C303.035 741.105 305.242 740.525 307.098 739.355C308.943 738.155 310.31 736.445 311.199 734.235V728.685H300.574C294.793 728.685 291.902 730.705 291.902 734.745C291.902 736.725 292.644 738.285 294.129 739.425C295.633 740.555 297.742 741.105 300.457 741.105Z" fill="#6B7280"/>
<path d="M345.468 710.285C349.706 710.285 353.085 711.525 355.585 713.995C358.104 716.445 359.374 720.035 359.374 724.745V744.385H354.804V725.205C354.804 721.695 353.915 719.015 352.147 717.165C350.399 715.315 347.889 714.385 344.608 714.385C340.956 714.385 338.065 715.475 335.936 717.635C333.827 719.795 332.772 722.785 332.772 726.615V744.385H328.202V710.525H332.577V716.775C333.827 714.725 335.555 713.125 337.772 712.005C339.979 710.865 342.548 710.285 345.468 710.285Z" fill="#6B7280"/>
<path d="M385.934 744.705C382.594 744.705 379.606 743.975 376.95 742.515C374.313 741.055 372.243 739.015 370.739 736.385C369.254 733.725 368.512 730.755 368.512 727.475C368.512 724.175 369.254 721.215 370.739 718.605C372.243 715.985 374.313 713.935 376.95 712.475C379.606 711.015 382.594 710.285 385.934 710.285C388.844 710.285 391.452 710.865 393.747 712.005C396.061 713.125 397.887 714.775 399.215 716.965L395.817 719.275C394.694 717.615 393.278 716.365 391.559 715.525C389.84 714.695 387.965 714.275 385.934 714.275C383.483 714.275 381.286 714.815 379.332 715.915C377.399 717.005 375.875 718.565 374.762 720.605C373.668 722.615 373.122 724.895 373.122 727.475C373.122 730.085 373.668 732.385 374.762 734.385C375.875 736.375 377.399 737.905 379.332 738.995C381.286 740.095 383.483 740.635 385.934 740.635C387.965 740.635 389.84 740.235 391.559 739.425C393.278 738.625 394.694 737.385 395.817 735.715L399.215 738.025C397.887 740.205 396.061 741.875 393.747 743.025C391.422 744.145 388.825 744.705 385.934 744.705Z" fill="#6B7280"/>
<path d="M437.065 728.885H408.744C408.998 732.395 410.356 735.235 412.807 737.395C415.248 739.565 418.334 740.635 422.065 740.635C424.174 740.635 426.098 740.275 427.846 739.545C429.613 738.795 431.137 737.685 432.416 736.225L434.994 739.195C433.51 740.995 431.635 742.355 429.369 743.295C427.104 744.235 424.623 744.705 421.947 744.705C418.451 744.705 415.365 743.975 412.69 742.515C410.004 741.025 407.904 738.975 406.401 736.345C404.916 733.715 404.174 730.755 404.174 727.475C404.174 724.175 404.887 721.215 406.322 718.605C407.748 715.985 409.721 713.935 412.221 712.475C414.74 711.015 417.572 710.285 420.697 710.285C423.842 710.285 426.654 711.015 429.135 712.475C431.635 713.935 433.588 715.975 434.994 718.565C436.42 721.145 437.143 724.115 437.143 727.475L437.065 728.885ZM420.697 714.195C417.436 714.195 414.701 715.235 412.494 717.315C410.278 719.405 409.028 722.115 408.744 725.445H432.768C432.455 722.115 431.186 719.405 428.979 717.315C426.762 715.235 423.998 714.195 420.697 714.195Z" fill="#6B7280"/>
<path d="M492.811 728.885H464.49C464.744 732.395 466.102 735.235 468.553 737.395C470.994 739.565 474.08 740.635 477.811 740.635C479.92 740.635 481.844 740.275 483.592 739.545C485.36 738.795 486.883 737.685 488.162 736.225L490.74 739.195C489.256 740.995 487.381 742.355 485.115 743.295C482.85 744.235 480.369 744.705 477.694 744.705C474.197 744.705 471.111 743.975 468.436 742.515C465.75 741.025 463.651 738.975 462.147 736.345C460.662 733.715 459.92 730.755 459.92 727.475C459.92 724.175 460.633 721.215 462.069 718.605C463.494 715.985 465.467 713.935 467.967 712.475C470.486 711.015 473.319 710.285 476.444 710.285C479.588 710.285 482.401 711.015 484.881 712.475C487.381 713.935 489.334 715.975 490.74 718.565C492.166 721.145 492.889 724.115 492.889 727.475L492.811 728.885ZM476.444 714.195C473.182 714.195 470.447 715.235 468.24 717.315C466.024 719.405 464.774 722.115 464.49 725.445H488.514C488.201 722.115 486.932 719.405 484.725 717.315C482.508 715.235 479.744 714.195 476.444 714.195Z" fill="#6B7280"/>
<path d="M544.426 710.285C548.664 710.285 552.004 711.515 554.426 713.955C556.867 716.385 558.098 719.975 558.098 724.745V744.385H553.527V725.205C553.527 721.695 552.668 719.015 550.949 717.165C549.25 715.315 546.867 714.385 543.801 714.385C540.285 714.385 537.512 715.475 535.48 717.635C533.469 719.795 532.473 722.785 532.473 726.615V744.385H527.902V725.205C527.902 721.695 527.053 719.015 525.363 717.165C523.664 715.315 521.242 714.385 518.098 714.385C514.631 714.385 511.867 715.475 509.816 717.635C507.785 719.795 506.769 722.785 506.769 726.615V744.385H502.199V710.525H506.574V716.695C507.765 714.645 509.435 713.065 511.574 711.965C513.732 710.855 516.203 710.285 518.996 710.285C521.828 710.285 524.289 710.895 526.379 712.085C528.459 713.285 530.012 715.055 531.027 717.395C532.277 715.185 534.074 713.455 536.418 712.205C538.762 710.935 541.428 710.285 544.426 710.285Z" fill="#6B7280"/>
<path d="M601.387 744.705C598.047 744.705 595.059 743.975 592.402 742.515C589.766 741.055 587.695 739.015 586.191 736.385C584.707 733.725 583.965 730.755 583.965 727.475C583.965 724.175 584.707 721.215 586.191 718.605C587.695 715.985 589.766 713.935 592.402 712.475C595.059 711.015 598.047 710.285 601.387 710.285C604.297 710.285 606.904 710.865 609.199 712.005C611.514 713.125 613.34 714.775 614.668 716.965L611.269 719.275C610.146 717.615 608.73 716.365 607.012 715.525C605.293 714.695 603.418 714.275 601.387 714.275C598.935 714.275 596.738 714.815 594.785 715.915C592.851 717.005 591.328 718.565 590.215 720.605C589.121 722.615 588.574 724.895 588.574 727.475C588.574 730.085 589.121 732.385 590.215 734.385C591.328 736.375 592.851 737.905 594.785 738.995C596.738 740.095 598.935 740.635 601.387 740.635C603.418 740.635 605.293 740.235 607.012 739.425C608.73 738.625 610.146 737.385 611.269 735.715L614.668 738.025C613.34 740.205 611.514 741.875 609.199 743.025C606.875 744.145 604.277 744.705 601.387 744.705Z" fill="#6B7280"/>
<path d="M635.44 710.285C639.864 710.285 643.253 711.405 645.597 713.605C647.96 715.795 649.151 719.065 649.151 723.415V744.385H644.776V739.115C643.761 740.865 642.247 742.235 640.245 743.215C638.263 744.215 635.89 744.705 633.136 744.705C629.356 744.705 626.349 743.805 624.112 742.005C621.896 740.205 620.792 737.825 620.792 734.855C620.792 731.995 621.817 729.695 623.878 727.945C625.958 726.175 629.278 725.285 633.839 725.285H644.581V723.215C644.581 720.305 643.761 718.095 642.12 716.575C640.499 715.045 638.136 714.275 635.011 714.275C632.843 714.275 630.772 714.625 628.8 715.325C626.847 716.025 625.147 717.005 623.722 718.255L621.69 714.855C623.409 713.405 625.46 712.275 627.862 711.495C630.255 710.695 632.784 710.285 635.44 710.285ZM633.839 741.105C636.417 741.105 638.624 740.525 640.48 739.355C642.325 738.155 643.692 736.445 644.581 734.235V728.685H633.956C628.175 728.685 625.284 730.705 625.284 734.745C625.284 736.725 626.026 738.285 627.511 739.425C629.015 740.555 631.124 741.105 633.839 741.105Z" fill="#6B7280"/>
<path d="M692.611 696.615V744.385H688.236V737.705C686.849 739.975 685.033 741.715 682.767 742.905C680.521 744.105 678.002 744.705 675.189 744.705C672.006 744.705 669.135 743.975 666.556 742.515C663.978 741.055 661.957 739.025 660.502 736.425C659.037 733.795 658.314 730.815 658.314 727.475C658.314 724.115 659.037 721.135 660.502 718.525C661.957 715.905 663.978 713.875 666.556 712.435C669.135 711.015 672.006 710.285 675.189 710.285C677.924 710.285 680.394 710.865 682.611 712.005C684.818 713.125 686.635 714.775 688.041 716.965V696.615H692.611ZM675.541 740.635C677.904 740.635 680.043 740.095 681.947 738.995C683.871 737.905 685.385 736.365 686.478 734.355C687.572 732.315 688.119 730.035 688.119 727.475C688.119 724.895 687.572 722.615 686.478 720.605C685.385 718.565 683.871 717.005 681.947 715.915C680.043 714.815 677.904 714.275 675.541 714.275C673.139 714.275 670.99 714.815 669.096 715.915C667.191 717.005 665.678 718.565 664.564 720.605C663.471 722.615 662.924 724.895 662.924 727.475C662.924 730.035 663.471 732.315 664.564 734.355C665.678 736.365 667.191 737.905 669.096 738.995C670.99 740.095 673.139 740.635 675.541 740.635Z" fill="#6B7280"/>
<path d="M717.193 710.285C721.617 710.285 725.005 711.405 727.349 713.605C729.712 715.795 730.904 719.065 730.904 723.415V744.385H726.529V739.115C725.513 740.865 723.999 742.235 721.997 743.215C720.015 744.215 717.642 744.705 714.888 744.705C711.109 744.705 708.101 743.805 705.865 742.005C703.648 740.205 702.544 737.825 702.544 734.855C702.544 731.995 703.57 729.695 705.63 727.945C707.71 726.175 711.031 725.285 715.591 725.285H726.333V723.215C726.333 720.305 725.513 718.095 723.872 716.575C722.251 715.045 719.888 714.275 716.763 714.275C714.595 714.275 712.525 714.625 710.552 715.325C708.599 716.025 706.9 717.005 705.474 718.255L703.443 714.855C705.162 713.405 707.212 712.275 709.615 711.495C712.007 710.695 714.537 710.285 717.193 710.285ZM715.591 741.105C718.169 741.105 720.376 740.525 722.232 739.355C724.078 738.155 725.445 736.445 726.333 734.235V728.685H715.708C709.927 728.685 707.037 730.705 707.037 734.745C707.037 736.725 707.779 738.285 709.263 739.425C710.767 740.555 712.876 741.105 715.591 741.105Z" fill="#6B7280"/>
<path d="M802.428 710.285C806.667 710.285 810.006 711.515 812.428 713.955C814.87 716.385 816.1 719.975 816.1 724.745V744.385H811.53V725.205C811.53 721.695 810.671 719.015 808.952 717.165C807.253 715.315 804.87 714.385 801.803 714.385C798.288 714.385 795.514 715.475 793.483 717.635C791.471 719.795 790.475 722.785 790.475 726.615V744.385H785.905V725.205C785.905 721.695 785.055 719.015 783.366 717.165C781.667 715.315 779.245 714.385 776.1 714.385C772.633 714.385 769.87 715.475 767.819 717.635C765.788 719.795 764.772 722.785 764.772 726.615V744.385H760.202V710.525H764.577V716.695C765.768 714.645 767.438 713.065 769.577 711.965C771.735 710.855 774.206 710.285 776.999 710.285C779.831 710.285 782.292 710.895 784.381 712.085C786.462 713.285 788.014 715.055 789.03 717.395C790.28 715.185 792.077 713.455 794.421 712.205C796.764 710.935 799.43 710.285 802.428 710.285Z" fill="#6B7280"/>
<path d="M842.457 744.705C839.195 744.705 836.256 743.975 833.629 742.515C831.022 741.025 828.961 738.975 827.457 736.345C825.973 733.715 825.231 730.755 825.231 727.475C825.231 724.175 825.973 721.215 827.457 718.605C828.961 715.985 831.022 713.935 833.629 712.475C836.256 711.015 839.195 710.285 842.457 710.285C845.738 710.285 848.678 711.015 851.29 712.475C853.91 713.935 855.95 715.985 857.42 718.605C858.9 721.215 859.64 724.175 859.64 727.475C859.64 730.755 858.9 733.715 857.42 736.345C855.95 738.975 853.91 741.025 851.29 742.515C848.678 743.975 845.738 744.705 842.457 744.705ZM842.457 740.635C844.879 740.635 847.037 740.095 848.942 738.995C850.84 737.905 852.32 736.365 853.39 734.355C854.49 732.315 855.04 730.035 855.04 727.475C855.04 724.895 854.49 722.615 853.39 720.605C852.32 718.565 850.84 717.005 848.942 715.915C847.037 714.815 844.879 714.275 842.457 714.275C840.055 714.275 837.906 714.815 836.012 715.915C834.108 717.005 832.594 718.565 831.481 720.605C830.387 722.615 829.84 724.895 829.84 727.475C829.84 730.035 830.387 732.315 831.481 734.355C832.594 736.365 834.108 737.905 836.012 738.995C837.906 740.095 840.055 740.635 842.457 740.635Z" fill="#6B7280"/>
<path d="M896.5 710.525L881.42 744.385H876.74L861.74 710.525H866.5L879.16 739.355L891.97 710.525H896.5Z" fill="#6B7280"/>
<path d="M902.91 710.525H907.48V744.385H902.91V710.525ZM905.26 703.135C904.29 703.135 903.48 702.815 902.84 702.165C902.21 701.515 901.9 700.745 901.9 699.855C901.9 698.995 902.21 698.245 902.84 697.595C903.48 696.945 904.29 696.615 905.26 696.615C906.2 696.615 906.98 696.925 907.6 697.555C908.25 698.175 908.58 698.925 908.58 699.775C908.58 700.715 908.25 701.515 907.6 702.165C906.98 702.815 906.2 703.135 905.26 703.135Z" fill="#6B7280"/>
<path d="M962.46 710.285C966.69 710.285 970.03 711.515 972.46 713.955C974.9 716.385 976.13 719.975 976.13 724.745V744.385H971.56V725.205C971.56 721.695 970.7 719.015 968.98 717.165C967.28 715.315 964.9 714.385 961.83 714.385C958.32 714.385 955.54 715.475 953.51 717.635C951.5 719.795 950.5 722.785 950.5 726.615V744.385H945.93V725.205C945.93 721.695 945.08 719.015 943.39 717.165C941.69 715.315 939.27 714.385 936.13 714.385C932.66 714.385 929.9 715.475 927.85 717.635C925.82 719.795 924.8 722.785 924.8 726.615V744.385H920.23V710.525H924.61V716.695C925.8 714.645 927.47 713.065 929.61 711.965C931.76 710.855 934.23 710.285 937.03 710.285C939.86 710.285 942.32 710.895 944.41 712.085C946.49 713.285 948.04 715.055 949.06 717.395C950.31 715.185 952.11 713.455 954.45 712.205C956.79 710.935 959.46 710.285 962.46 710.285Z" fill="#6B7280"/>
<path d="M1018.15 728.885H989.83C990.08 732.395 991.44 735.235 993.89 737.395C996.33 739.565 999.42 740.635 1003.15 740.635C1005.26 740.635 1007.18 740.275 1008.93 739.545C1010.7 738.795 1012.22 737.685 1013.5 736.225L1016.08 739.195C1014.59 740.995 1012.72 742.355 1010.45 743.295C1008.19 744.235 1005.71 744.705 1003.03 744.705C999.54 744.705 996.45 743.975 993.77 742.515C991.09 741.025 988.99 738.975 987.49 736.345C986 733.715 985.26 730.755 985.26 727.475C985.26 724.175 985.97 721.215 987.41 718.605C988.83 715.985 990.81 713.935 993.31 712.475C995.83 711.015 998.66 710.285 1001.78 710.285C1004.93 710.285 1007.74 711.015 1010.22 712.475C1012.72 713.935 1014.67 715.975 1016.08 718.565C1017.51 721.145 1018.23 724.115 1018.23 727.475L1018.15 728.885ZM1001.78 714.195C998.52 714.195 995.79 715.235 993.58 717.315C991.36 719.405 990.11 722.115 989.83 725.445H1013.85C1013.54 722.115 1012.27 719.405 1010.06 717.315C1007.85 715.235 1005.08 714.195 1001.78 714.195Z" fill="#6B7280"/>
<path d="M1044.8 710.285C1049.04 710.285 1052.42 711.525 1054.92 713.995C1057.44 716.445 1058.71 720.035 1058.71 724.745V744.385H1054.14V725.205C1054.14 721.695 1053.25 719.015 1051.48 717.165C1049.74 715.315 1047.23 714.385 1043.94 714.385C1040.29 714.385 1037.4 715.475 1035.27 717.635C1033.16 719.795 1032.11 722.785 1032.11 726.615V744.385H1027.54V710.525H1031.91V716.775C1033.16 714.725 1034.89 713.125 1037.11 712.005C1039.32 710.865 1041.88 710.285 1044.8 710.285Z" fill="#6B7280"/>
<path d="M1088.97 742.315C1088.11 743.105 1087.04 743.705 1085.77 744.115C1084.49 744.505 1083.17 744.705 1081.82 744.705C1078.64 744.705 1076.2 743.845 1074.48 742.125C1072.76 740.405 1071.9 737.985 1071.9 734.855V714.385H1065.84V710.525H1071.9V703.135H1076.47V710.525H1086.78V714.385H1076.47V734.625C1076.47 736.635 1076.96 738.165 1077.95 739.235C1078.97 740.275 1080.42 740.795 1082.33 740.795C1083.27 740.795 1084.17 740.655 1085.06 740.365C1085.94 740.055 1086.7 739.615 1087.33 739.035L1088.97 742.315Z" fill="#6B7280"/>
<path d="M1109.86 744.705C1106.6 744.705 1103.66 743.975 1101.03 742.515C1098.42 741.025 1096.36 738.975 1094.86 736.345C1093.37 733.715 1092.63 730.755 1092.63 727.475C1092.63 724.175 1093.37 721.215 1094.86 718.605C1096.36 715.985 1098.42 713.935 1101.03 712.475C1103.66 711.015 1106.6 710.285 1109.86 710.285C1113.14 710.285 1116.08 711.015 1118.69 712.475C1121.31 713.935 1123.35 715.985 1124.82 718.605C1126.3 721.215 1127.05 724.175 1127.05 727.475C1127.05 730.755 1126.3 733.715 1124.82 736.345C1123.35 738.975 1121.31 741.025 1118.69 742.515C1116.08 743.975 1113.14 744.705 1109.86 744.705ZM1109.86 740.635C1112.28 740.635 1114.44 740.095 1116.34 738.995C1118.24 737.905 1119.72 736.365 1120.8 734.355C1121.89 732.315 1122.44 730.035 1122.44 727.475C1122.44 724.895 1121.89 722.615 1120.8 720.605C1119.72 718.565 1118.24 717.005 1116.34 715.915C1114.44 714.815 1112.28 714.275 1109.86 714.275C1107.46 714.275 1105.31 714.815 1103.41 715.915C1101.51 717.005 1099.99 718.565 1098.88 720.605C1097.79 722.615 1097.24 724.895 1097.24 727.475C1097.24 730.035 1097.79 732.315 1098.88 734.355C1099.99 736.365 1101.51 737.905 1103.41 738.995C1105.31 740.095 1107.46 740.635 1109.86 740.635Z" fill="#6B7280"/>
<path d="M1135.89 744.705C1134.93 744.705 1134.11 744.365 1133.43 743.685C1132.78 743.015 1132.46 742.185 1132.46 741.185C1132.46 740.195 1132.78 739.375 1133.43 738.725C1134.11 738.055 1134.93 737.705 1135.89 737.705C1136.83 737.705 1137.63 738.055 1138.32 738.725C1139.02 739.375 1139.37 740.195 1139.37 741.185C1139.37 742.185 1139.02 743.015 1138.32 743.685C1137.63 744.365 1136.83 744.705 1135.89 744.705Z" fill="#6B7280"/>
</g>
<mask id="mask13_1_371" style="mask-type:luminance" maskUnits="userSpaceOnUse" x="0" y="310" width="1203" height="418">
<path d="M1202.5 310.225H0V727.725H1202.5V310.225Z" fill="white"/>
</mask>
<g mask="url(#mask13_1_371)">
<path d="M174.063 609.253V493.549H172.227L133.398 609.253H102.227L63.398 493.549H61.563V609.253H18.75V427.534H81.875L117.813 532.378H119.648L155.313 427.534H218.164V609.253H174.063Z" fill="#284D97"/>
<path d="M330.426 611.362C304.879 611.362 286.686 608.686 275.856 603.315C265.045 597.954 258.278 589.37 255.543 577.573C252.809 565.776 251.442 546.049 251.442 518.393C251.442 490.737 252.809 471.01 255.543 459.213C258.278 447.417 265.045 438.842 275.856 433.471C286.686 428.11 304.879 425.424 330.426 425.424C355.944 425.424 374.118 428.11 384.958 433.471C395.788 438.842 402.516 447.417 405.153 459.213C407.809 471.01 409.137 490.737 409.137 518.393C409.137 546.049 407.809 565.776 405.153 577.573C402.516 589.37 395.788 597.954 384.958 603.315C374.118 608.686 355.944 611.362 330.426 611.362ZM330.426 574.135C341.852 574.135 349.508 573.217 353.395 571.362C357.272 569.516 359.733 565.249 360.778 558.549C361.842 551.86 362.379 538.471 362.379 518.393C362.379 498.315 361.842 484.936 360.778 478.237C359.733 471.547 357.272 467.28 353.395 465.424C349.508 463.579 341.852 462.651 330.426 462.651C318.961 462.651 311.207 463.579 307.145 465.424C303.102 467.28 300.553 471.635 299.489 478.51C298.444 485.385 297.926 498.686 297.926 518.393C297.926 538.11 298.444 551.401 299.489 558.276C300.553 565.151 303.102 569.516 307.145 571.362C311.207 573.217 318.961 574.135 330.426 574.135Z" fill="#284D97"/>
<path d="M477.522 609.253L423.654 427.534H470.647L507.639 558.276H509.748L546.467 427.534H592.678L538.537 609.253H477.522Z" fill="#284D97"/>
<path d="M769.376 609.253V493.549H767.54L728.712 609.253H697.54L658.712 493.549H656.876V609.253H614.064V427.534H677.189L713.126 532.378H714.962L750.626 427.534H813.478V609.253H769.376Z" fill="#284D97"/>
<path d="M966.13 609.253L955.31 574.917H890.58L880.31 609.253H834.334L892.46 427.534H954.8L1012.89 609.253H966.13ZM923.36 468.198H922.03L901.17 537.651H944.49L923.36 468.198Z" fill="#284D97"/>
<path d="M1125.93 610.581C1120.46 611.098 1114.21 611.362 1107.18 611.362C1081.99 611.362 1064.07 608.725 1053.43 603.432C1042.77 598.149 1036.12 589.604 1033.47 577.807C1030.83 566.01 1029.52 546.206 1029.52 518.393C1029.52 490.561 1030.83 470.737 1033.47 458.94C1036.12 447.143 1042.77 438.618 1053.43 433.354C1064.07 428.071 1081.99 425.424 1107.18 425.424C1132.35 425.424 1150.31 428.071 1161.05 433.354C1171.8 438.618 1178.53 447.202 1181.24 459.096C1183.98 470.971 1185.34 490.737 1185.34 518.393C1185.34 534.956 1184.89 548.12 1184.01 557.885C1183.16 567.651 1181.4 575.883 1178.74 582.573C1176.1 589.272 1172.06 594.555 1166.59 598.432L1194.33 638.042V639.643H1145.46L1125.93 610.581ZM1107.18 574.917C1118.45 574.917 1126.07 573.999 1130.03 572.143C1133.99 570.297 1136.49 565.893 1137.53 558.94C1138.59 551.987 1139.13 538.471 1139.13 518.393C1139.13 498.315 1138.59 484.799 1137.53 477.846C1136.49 470.893 1133.99 466.499 1130.03 464.643C1126.07 462.797 1118.45 461.87 1107.18 461.87C1095.9 461.87 1088.32 462.797 1084.44 464.643C1080.59 466.499 1078.13 470.893 1077.06 477.846C1075.99 484.799 1075.46 498.315 1075.46 518.393C1075.46 538.471 1075.99 551.987 1077.06 558.94C1078.13 565.893 1080.59 570.297 1084.44 572.143C1088.32 573.999 1095.9 574.917 1107.18 574.917Z" fill="#284D97"/>
</g>
<path d="M20.957 659.581H1193.32" stroke="#284D97" stroke-width="14"/>
<path d="M623.027 44.366V137.413H723.721" stroke="white" stroke-width="13"/>
</svg>
