<svg xmlns="http://www.w3.org/2000/svg" xmlns:xlink="http://www.w3.org/1999/xlink" width="800" zoomAndPan="magnify" viewBox="0 0 600 599.999999" height="800" preserveAspectRatio="xMidYMid meet" version="1.0"><defs><g/><clipPath id="f407d4329e"><path d="M 215.195312 133.910156 L 370.675781 133.910156 L 370.675781 273.566406 L 215.195312 273.566406 Z M 215.195312 133.910156 " clip-rule="nonzero"/></clipPath><clipPath id="bae1829eef"><path d="M 370.15625 138.410156 L 370.15625 269.066406 C 370.15625 270.261719 369.683594 271.40625 368.839844 272.25 C 367.996094 273.09375 366.851562 273.566406 365.65625 273.566406 L 219.695312 273.566406 C 218.503906 273.566406 217.359375 273.09375 216.515625 272.25 C 215.671875 271.40625 215.195312 270.261719 215.195312 269.066406 L 215.195312 138.410156 C 215.195312 137.214844 215.671875 136.070312 216.515625 135.226562 C 217.359375 134.382812 218.503906 133.910156 219.695312 133.910156 L 365.65625 133.910156 C 366.851562 133.910156 367.996094 134.382812 368.839844 135.226562 C 369.683594 136.070312 370.15625 137.214844 370.15625 138.410156 Z M 370.15625 138.410156 " clip-rule="nonzero"/></clipPath><clipPath id="a20ecdb81d"><path d="M 0.195312 0.910156 L 155.320312 0.910156 L 155.320312 140.566406 L 0.195312 140.566406 Z M 0.195312 0.910156 " clip-rule="nonzero"/></clipPath><clipPath id="35773cb47a"><path d="M 155.15625 5.410156 L 155.15625 136.066406 C 155.15625 137.261719 154.683594 138.40625 153.839844 139.25 C 152.996094 140.09375 151.851562 140.566406 150.65625 140.566406 L 4.695312 140.566406 C 3.503906 140.566406 2.359375 140.09375 1.515625 139.25 C 0.671875 138.40625 0.195312 137.261719 0.195312 136.066406 L 0.195312 5.410156 C 0.195312 4.214844 0.671875 3.070312 1.515625 2.226562 C 2.359375 1.382812 3.503906 0.910156 4.695312 0.910156 L 150.65625 0.910156 C 151.851562 0.910156 152.996094 1.382812 153.839844 2.226562 C 154.683594 3.070312 155.15625 4.214844 155.15625 5.410156 Z M 155.15625 5.410156 " clip-rule="nonzero"/></clipPath><clipPath id="a94e1f18ec"><rect x="0" width="156" y="0" height="141"/></clipPath><clipPath id="265c6e92c7"><path d="M 229.804688 147.085938 L 355.886719 147.085938 L 355.886719 260.34375 L 229.804688 260.34375 Z M 229.804688 147.085938 " clip-rule="nonzero"/></clipPath><clipPath id="172f3446f9"><path d="M 355.550781 151.585938 L 355.550781 255.84375 C 355.550781 258.328125 353.535156 260.34375 351.050781 260.34375 L 234.304688 260.34375 C 231.816406 260.34375 229.804688 258.328125 229.804688 255.84375 L 229.804688 151.585938 C 229.804688 149.101562 231.816406 147.085938 234.304688 147.085938 L 351.050781 147.085938 C 353.535156 147.085938 355.550781 149.101562 355.550781 151.585938 Z M 355.550781 151.585938 " clip-rule="nonzero"/></clipPath><clipPath id="4567c42b97"><path d="M 0.804688 0.0859375 L 126.679688 0.0859375 L 126.679688 113.34375 L 0.804688 113.34375 Z M 0.804688 0.0859375 " clip-rule="nonzero"/></clipPath><clipPath id="ce8f0beefc"><path d="M 126.550781 4.585938 L 126.550781 108.84375 C 126.550781 111.328125 124.535156 113.34375 122.050781 113.34375 L 5.304688 113.34375 C 2.816406 113.34375 0.804688 111.328125 0.804688 108.84375 L 0.804688 4.585938 C 0.804688 2.101562 2.816406 0.0859375 5.304688 0.0859375 L 122.050781 0.0859375 C 124.535156 0.0859375 126.550781 2.101562 126.550781 4.585938 Z M 126.550781 4.585938 " clip-rule="nonzero"/></clipPath><clipPath id="b21ec33b8b"><rect x="0" width="127" y="0" height="114"/></clipPath><clipPath id="938fda73c6"><path d="M 229.804688 147.105469 L 355.691406 147.105469 L 355.691406 260.335938 L 229.804688 260.335938 Z M 229.804688 147.105469 " clip-rule="nonzero"/></clipPath><clipPath id="b0ba04d88f"><path d="M 355.546875 151.605469 L 355.546875 255.855469 C 355.546875 258.339844 353.53125 260.355469 351.046875 260.355469 L 234.304688 260.355469 C 231.816406 260.355469 229.804688 258.339844 229.804688 255.855469 L 229.804688 151.605469 C 229.804688 149.121094 231.816406 147.105469 234.304688 147.105469 L 351.046875 147.105469 C 353.53125 147.105469 355.546875 149.121094 355.546875 151.605469 Z M 355.546875 151.605469 " clip-rule="nonzero"/></clipPath><clipPath id="bffbd5dc69"><path d="M 450 25 L 450.921875 25 L 450.921875 26 L 450 26 Z M 450 25 " clip-rule="nonzero"/></clipPath><clipPath id="c433abb034"><rect x="0" width="451" y="0" height="33"/></clipPath><clipPath id="a19c5403af"><rect x="0" width="481" y="0" height="167"/></clipPath></defs><g clip-path="url(#f407d4329e)"><g clip-path="url(#bae1829eef)"><g transform="matrix(1, 0, 0, 1, 215, 133)"><g clip-path="url(#a94e1f18ec)"><g clip-path="url(#a20ecdb81d)"><g clip-path="url(#35773cb47a)"><path fill="#284d97" d="M 0.195312 0.910156 L 155.128906 0.910156 L 155.128906 140.566406 L 0.195312 140.566406 Z M 0.195312 0.910156 " fill-opacity="1" fill-rule="nonzero"/></g></g></g></g></g></g><g clip-path="url(#265c6e92c7)"><g clip-path="url(#172f3446f9)"><g transform="matrix(1, 0, 0, 1, 229, 147)"><g clip-path="url(#b21ec33b8b)"><g clip-path="url(#4567c42b97)"><g clip-path="url(#ce8f0beefc)"><path fill="#284d97" d="M 0.804688 0.0859375 L 126.445312 0.0859375 L 126.445312 113.34375 L 0.804688 113.34375 Z M 0.804688 0.0859375 " fill-opacity="1" fill-rule="nonzero"/></g></g></g></g></g></g><g clip-path="url(#938fda73c6)"><g clip-path="url(#b0ba04d88f)"><path stroke-linecap="butt" transform="matrix(0.75, 0, 0, 0.75, 229.803624, 147.104939)" fill="none" stroke-linejoin="miter" d="M 167.657664 6.000706 L 167.657664 145.000703 C 167.657664 148.313203 164.970164 151.000703 161.657664 151.000703 L 6.001418 151.000703 C 2.683709 151.000703 0.00141787 148.313203 0.00141787 145.000703 L 0.00141787 6.000706 C 0.00141787 2.688206 2.683709 0.000705902 6.001418 0.000705902 L 161.657664 0.000705902 C 164.970164 0.000705902 167.657664 2.688206 167.657664 6.000706 Z M 167.657664 6.000706 " stroke="#ffffff" stroke-width="18" stroke-opacity="1" stroke-miterlimit="4"/></g></g><path stroke-linecap="butt" transform="matrix(0.587501, -0.466201, 0.466201, 0.587501, 231.132266, 209.650559)" fill="none" stroke-linejoin="miter" d="M 0.00202497 6.500649 L 127.740166 6.502035 " stroke="#ffffff" stroke-width="13" stroke-opacity="1" stroke-miterlimit="4"/><path stroke-linecap="butt" transform="matrix(0.53033, -0.53033, 0.53033, 0.53033, 282.450487, 251.336961)" fill="none" stroke-linejoin="miter" d="M -0.000230915 6.501748 L 119.905933 6.501748 " stroke="#ffffff" stroke-width="13" stroke-opacity="1" stroke-miterlimit="4"/><g transform="matrix(1, 0, 0, 1, 67, 406)"><g clip-path="url(#c433abb034)"><g fill="#6b7280" fill-opacity="1"><g transform="translate(0.431706, 25.665664)"><g><path d="M 9.6875 -18.03125 C 11.976562 -18.03125 13.773438 -17.476562 15.078125 -16.375 C 16.390625 -15.28125 17.046875 -13.769531 17.046875 -11.84375 C 17.046875 -9.925781 16.390625 -8.421875 15.078125 -7.328125 C 13.773438 -6.234375 11.976562 -5.6875 9.6875 -5.6875 L 4.84375 -5.6875 L 4.84375 0 L 2.9375 0 L 2.9375 -18.03125 Z M 9.625 -7.359375 C 11.414062 -7.359375 12.78125 -7.75 13.71875 -8.53125 C 14.664062 -9.3125 15.140625 -10.414062 15.140625 -11.84375 C 15.140625 -13.300781 14.664062 -14.421875 13.71875 -15.203125 C 12.78125 -15.984375 11.414062 -16.375 9.625 -16.375 L 4.84375 -16.375 L 4.84375 -7.359375 Z M 9.625 -7.359375 "/></g></g></g><g fill="#6b7280" fill-opacity="1"><g transform="translate(18.584511, 25.665664)"><g><path d="M 14.34375 -6.203125 L 3.015625 -6.203125 C 3.117188 -4.796875 3.660156 -3.660156 4.640625 -2.796875 C 5.617188 -1.929688 6.851562 -1.5 8.34375 -1.5 C 9.1875 -1.5 9.957031 -1.644531 10.65625 -1.9375 C 11.363281 -2.238281 11.972656 -2.679688 12.484375 -3.265625 L 13.515625 -2.078125 C 12.921875 -1.359375 12.171875 -0.8125 11.265625 -0.4375 C 10.359375 -0.0625 9.367188 0.125 8.296875 0.125 C 6.898438 0.125 5.664062 -0.164062 4.59375 -0.75 C 3.519531 -1.34375 2.679688 -2.164062 2.078125 -3.21875 C 1.484375 -4.269531 1.1875 -5.453125 1.1875 -6.765625 C 1.1875 -8.085938 1.472656 -9.269531 2.046875 -10.3125 C 2.617188 -11.363281 3.40625 -12.179688 4.40625 -12.765625 C 5.414062 -13.347656 6.546875 -13.640625 7.796875 -13.640625 C 9.054688 -13.640625 10.179688 -13.347656 11.171875 -12.765625 C 12.171875 -12.179688 12.953125 -11.367188 13.515625 -10.328125 C 14.085938 -9.296875 14.375 -8.109375 14.375 -6.765625 Z M 7.796875 -12.078125 C 6.492188 -12.078125 5.398438 -11.660156 4.515625 -10.828125 C 3.628906 -9.992188 3.128906 -8.910156 3.015625 -7.578125 L 12.625 -7.578125 C 12.5 -8.910156 11.992188 -9.992188 11.109375 -10.828125 C 10.222656 -11.660156 9.117188 -12.078125 7.796875 -12.078125 Z M 7.796875 -12.078125 "/></g></g></g><g fill="#6b7280" fill-opacity="1"><g transform="translate(34.136757, 25.665664)"><g><path d="M 4.296875 -10.890625 C 4.722656 -11.796875 5.363281 -12.476562 6.21875 -12.9375 C 7.070312 -13.40625 8.125 -13.640625 9.375 -13.640625 L 9.375 -11.875 L 8.9375 -11.890625 C 7.507812 -11.890625 6.390625 -11.453125 5.578125 -10.578125 C 4.773438 -9.703125 4.375 -8.476562 4.375 -6.90625 L 4.375 0 L 2.546875 0 L 2.546875 -13.546875 L 4.296875 -13.546875 Z M 4.296875 -10.890625 "/></g></g></g><g fill="#6b7280" fill-opacity="1"><g transform="translate(44.462001, 25.665664)"><g><path d="M 7.03125 -17.6875 C 6.238281 -17.6875 5.640625 -17.472656 5.234375 -17.046875 C 4.835938 -16.617188 4.640625 -15.984375 4.640625 -15.140625 L 4.640625 -13.546875 L 8.8125 -13.546875 L 8.8125 -12 L 4.6875 -12 L 4.6875 0 L 2.859375 0 L 2.859375 -12 L 0.4375 -12 L 0.4375 -13.546875 L 2.859375 -13.546875 L 2.859375 -15.21875 C 2.859375 -16.457031 3.210938 -17.4375 3.921875 -18.15625 C 4.640625 -18.875 5.648438 -19.234375 6.953125 -19.234375 C 7.460938 -19.234375 7.957031 -19.160156 8.4375 -19.015625 C 8.925781 -18.867188 9.332031 -18.660156 9.65625 -18.390625 L 9.03125 -17.015625 C 8.5 -17.460938 7.832031 -17.6875 7.03125 -17.6875 Z M 7.03125 -17.6875 "/></g></g></g><g fill="#6b7280" fill-opacity="1"><g transform="translate(52.959045, 25.665664)"><g><path d="M 8.078125 0.125 C 6.773438 0.125 5.597656 -0.164062 4.546875 -0.75 C 3.503906 -1.34375 2.679688 -2.164062 2.078125 -3.21875 C 1.484375 -4.269531 1.1875 -5.453125 1.1875 -6.765625 C 1.1875 -8.085938 1.484375 -9.269531 2.078125 -10.3125 C 2.679688 -11.363281 3.503906 -12.179688 4.546875 -12.765625 C 5.597656 -13.347656 6.773438 -13.640625 8.078125 -13.640625 C 9.390625 -13.640625 10.566406 -13.347656 11.609375 -12.765625 C 12.660156 -12.179688 13.476562 -11.363281 14.0625 -10.3125 C 14.65625 -9.269531 14.953125 -8.085938 14.953125 -6.765625 C 14.953125 -5.453125 14.65625 -4.269531 14.0625 -3.21875 C 13.476562 -2.164062 12.660156 -1.34375 11.609375 -0.75 C 10.566406 -0.164062 9.390625 0.125 8.078125 0.125 Z M 8.078125 -1.5 C 9.046875 -1.5 9.910156 -1.71875 10.671875 -2.15625 C 11.429688 -2.59375 12.023438 -3.210938 12.453125 -4.015625 C 12.890625 -4.828125 13.109375 -5.742188 13.109375 -6.765625 C 13.109375 -7.796875 12.890625 -8.710938 12.453125 -9.515625 C 12.023438 -10.328125 11.429688 -10.953125 10.671875 -11.390625 C 9.910156 -11.828125 9.046875 -12.046875 8.078125 -12.046875 C 7.117188 -12.046875 6.257812 -11.828125 5.5 -11.390625 C 4.738281 -10.953125 4.132812 -10.328125 3.6875 -9.515625 C 3.25 -8.710938 3.03125 -7.796875 3.03125 -6.765625 C 3.03125 -5.742188 3.25 -4.828125 3.6875 -4.015625 C 4.132812 -3.210938 4.738281 -2.59375 5.5 -2.15625 C 6.257812 -1.71875 7.117188 -1.5 8.078125 -1.5 Z M 8.078125 -1.5 "/></g></g></g><g fill="#6b7280" fill-opacity="1"><g transform="translate(69.103513, 25.665664)"><g><path d="M 4.296875 -10.890625 C 4.722656 -11.796875 5.363281 -12.476562 6.21875 -12.9375 C 7.070312 -13.40625 8.125 -13.640625 9.375 -13.640625 L 9.375 -11.875 L 8.9375 -11.890625 C 7.507812 -11.890625 6.390625 -11.453125 5.578125 -10.578125 C 4.773438 -9.703125 4.375 -8.476562 4.375 -6.90625 L 4.375 0 L 2.546875 0 L 2.546875 -13.546875 L 4.296875 -13.546875 Z M 4.296875 -10.890625 "/></g></g></g><g fill="#6b7280" fill-opacity="1"><g transform="translate(79.222722, 25.665664)"><g><path d="M 19.4375 -13.640625 C 21.132812 -13.640625 22.46875 -13.148438 23.4375 -12.171875 C 24.414062 -11.203125 24.90625 -9.765625 24.90625 -7.859375 L 24.90625 0 L 23.078125 0 L 23.078125 -7.671875 C 23.078125 -9.078125 22.734375 -10.148438 22.046875 -10.890625 C 21.367188 -11.628906 20.414062 -12 19.1875 -12 C 17.78125 -12 16.671875 -11.566406 15.859375 -10.703125 C 15.054688 -9.835938 14.65625 -8.640625 14.65625 -7.109375 L 14.65625 0 L 12.828125 0 L 12.828125 -7.671875 C 12.828125 -9.078125 12.488281 -10.148438 11.8125 -10.890625 C 11.132812 -11.628906 10.164062 -12 8.90625 -12 C 7.519531 -12 6.414062 -11.566406 5.59375 -10.703125 C 4.78125 -9.835938 4.375 -8.640625 4.375 -7.109375 L 4.375 0 L 2.546875 0 L 2.546875 -13.546875 L 4.296875 -13.546875 L 4.296875 -11.078125 C 4.773438 -11.898438 5.441406 -12.53125 6.296875 -12.96875 C 7.160156 -13.414062 8.148438 -13.640625 9.265625 -13.640625 C 10.398438 -13.640625 11.382812 -13.398438 12.21875 -12.921875 C 13.050781 -12.441406 13.671875 -11.734375 14.078125 -10.796875 C 14.578125 -11.679688 15.296875 -12.375 16.234375 -12.875 C 17.171875 -13.382812 18.238281 -13.640625 19.4375 -13.640625 Z M 19.4375 -13.640625 "/></g></g></g><g fill="#6b7280" fill-opacity="1"><g transform="translate(106.542156, 25.665664)"><g><path d="M 7.28125 -13.640625 C 9.050781 -13.640625 10.40625 -13.195312 11.34375 -12.3125 C 12.289062 -11.4375 12.765625 -10.128906 12.765625 -8.390625 L 12.765625 0 L 11.015625 0 L 11.015625 -2.109375 C 10.609375 -1.410156 10.003906 -0.863281 9.203125 -0.46875 C 8.410156 -0.0703125 7.460938 0.125 6.359375 0.125 C 4.847656 0.125 3.644531 -0.234375 2.75 -0.953125 C 1.863281 -1.671875 1.421875 -2.625 1.421875 -3.8125 C 1.421875 -4.957031 1.832031 -5.878906 2.65625 -6.578125 C 3.488281 -7.285156 4.816406 -7.640625 6.640625 -7.640625 L 10.9375 -7.640625 L 10.9375 -8.46875 C 10.9375 -9.632812 10.609375 -10.519531 9.953125 -11.125 C 9.304688 -11.738281 8.359375 -12.046875 7.109375 -12.046875 C 6.242188 -12.046875 5.414062 -11.90625 4.625 -11.625 C 3.84375 -11.34375 3.164062 -10.953125 2.59375 -10.453125 L 1.78125 -11.8125 C 2.46875 -12.394531 3.289062 -12.84375 4.25 -13.15625 C 5.207031 -13.476562 6.21875 -13.640625 7.28125 -13.640625 Z M 6.640625 -1.3125 C 7.671875 -1.3125 8.554688 -1.546875 9.296875 -2.015625 C 10.035156 -2.492188 10.582031 -3.175781 10.9375 -4.0625 L 10.9375 -6.28125 L 6.6875 -6.28125 C 4.375 -6.28125 3.21875 -5.472656 3.21875 -3.859375 C 3.21875 -3.066406 3.515625 -2.441406 4.109375 -1.984375 C 4.710938 -1.535156 5.554688 -1.3125 6.640625 -1.3125 Z M 6.640625 -1.3125 "/></g></g></g><g fill="#6b7280" fill-opacity="1"><g transform="translate(121.733927, 25.665664)"><g><path d="M 9.453125 -13.640625 C 11.148438 -13.640625 12.5 -13.144531 13.5 -12.15625 C 14.507812 -11.175781 15.015625 -9.742188 15.015625 -7.859375 L 15.015625 0 L 13.1875 0 L 13.1875 -7.671875 C 13.1875 -9.078125 12.832031 -10.148438 12.125 -10.890625 C 11.425781 -11.628906 10.421875 -12 9.109375 -12 C 7.648438 -12 6.492188 -11.566406 5.640625 -10.703125 C 4.796875 -9.835938 4.375 -8.640625 4.375 -7.109375 L 4.375 0 L 2.546875 0 L 2.546875 -13.546875 L 4.296875 -13.546875 L 4.296875 -11.046875 C 4.796875 -11.867188 5.488281 -12.503906 6.375 -12.953125 C 7.257812 -13.410156 8.285156 -13.640625 9.453125 -13.640625 Z M 9.453125 -13.640625 "/></g></g></g><g fill="#6b7280" fill-opacity="1"><g transform="translate(139.217348, 25.665664)"><g><path d="M 8.15625 0.125 C 6.820312 0.125 5.625 -0.164062 4.5625 -0.75 C 3.507812 -1.332031 2.679688 -2.148438 2.078125 -3.203125 C 1.484375 -4.265625 1.1875 -5.453125 1.1875 -6.765625 C 1.1875 -8.085938 1.484375 -9.269531 2.078125 -10.3125 C 2.679688 -11.363281 3.507812 -12.179688 4.5625 -12.765625 C 5.625 -13.347656 6.820312 -13.640625 8.15625 -13.640625 C 9.320312 -13.640625 10.363281 -13.410156 11.28125 -12.953125 C 12.207031 -12.503906 12.9375 -11.84375 13.46875 -10.96875 L 12.109375 -10.046875 C 11.660156 -10.710938 11.09375 -11.210938 10.40625 -11.546875 C 9.71875 -11.878906 8.96875 -12.046875 8.15625 -12.046875 C 7.175781 -12.046875 6.296875 -11.828125 5.515625 -11.390625 C 4.742188 -10.953125 4.132812 -10.328125 3.6875 -9.515625 C 3.25 -8.710938 3.03125 -7.796875 3.03125 -6.765625 C 3.03125 -5.722656 3.25 -4.800781 3.6875 -4 C 4.132812 -3.207031 4.742188 -2.59375 5.515625 -2.15625 C 6.296875 -1.71875 7.175781 -1.5 8.15625 -1.5 C 8.96875 -1.5 9.71875 -1.660156 10.40625 -1.984375 C 11.09375 -2.304688 11.660156 -2.800781 12.109375 -3.46875 L 13.46875 -2.546875 C 12.9375 -1.671875 12.207031 -1.003906 11.28125 -0.546875 C 10.351562 -0.0976562 9.3125 0.125 8.15625 0.125 Z M 8.15625 0.125 "/></g></g></g><g fill="#6b7280" fill-opacity="1"><g transform="translate(153.482105, 25.665664)"><g><path d="M 14.34375 -6.203125 L 3.015625 -6.203125 C 3.117188 -4.796875 3.660156 -3.660156 4.640625 -2.796875 C 5.617188 -1.929688 6.851562 -1.5 8.34375 -1.5 C 9.1875 -1.5 9.957031 -1.644531 10.65625 -1.9375 C 11.363281 -2.238281 11.972656 -2.679688 12.484375 -3.265625 L 13.515625 -2.078125 C 12.921875 -1.359375 12.171875 -0.8125 11.265625 -0.4375 C 10.359375 -0.0625 9.367188 0.125 8.296875 0.125 C 6.898438 0.125 5.664062 -0.164062 4.59375 -0.75 C 3.519531 -1.34375 2.679688 -2.164062 2.078125 -3.21875 C 1.484375 -4.269531 1.1875 -5.453125 1.1875 -6.765625 C 1.1875 -8.085938 1.472656 -9.269531 2.046875 -10.3125 C 2.617188 -11.363281 3.40625 -12.179688 4.40625 -12.765625 C 5.414062 -13.347656 6.546875 -13.640625 7.796875 -13.640625 C 9.054688 -13.640625 10.179688 -13.347656 11.171875 -12.765625 C 12.171875 -12.179688 12.953125 -11.367188 13.515625 -10.328125 C 14.085938 -9.296875 14.375 -8.109375 14.375 -6.765625 Z M 7.796875 -12.078125 C 6.492188 -12.078125 5.398438 -11.660156 4.515625 -10.828125 C 3.628906 -9.992188 3.128906 -8.910156 3.015625 -7.578125 L 12.625 -7.578125 C 12.5 -8.910156 11.992188 -9.992188 11.109375 -10.828125 C 10.222656 -11.660156 9.117188 -12.078125 7.796875 -12.078125 Z M 7.796875 -12.078125 "/></g></g></g><g fill="#6b7280" fill-opacity="1"><g transform="translate(169.034351, 25.665664)"><g/></g></g><g fill="#6b7280" fill-opacity="1"><g transform="translate(175.78053, 25.665664)"><g><path d="M 14.34375 -6.203125 L 3.015625 -6.203125 C 3.117188 -4.796875 3.660156 -3.660156 4.640625 -2.796875 C 5.617188 -1.929688 6.851562 -1.5 8.34375 -1.5 C 9.1875 -1.5 9.957031 -1.644531 10.65625 -1.9375 C 11.363281 -2.238281 11.972656 -2.679688 12.484375 -3.265625 L 13.515625 -2.078125 C 12.921875 -1.359375 12.171875 -0.8125 11.265625 -0.4375 C 10.359375 -0.0625 9.367188 0.125 8.296875 0.125 C 6.898438 0.125 5.664062 -0.164062 4.59375 -0.75 C 3.519531 -1.34375 2.679688 -2.164062 2.078125 -3.21875 C 1.484375 -4.269531 1.1875 -5.453125 1.1875 -6.765625 C 1.1875 -8.085938 1.472656 -9.269531 2.046875 -10.3125 C 2.617188 -11.363281 3.40625 -12.179688 4.40625 -12.765625 C 5.414062 -13.347656 6.546875 -13.640625 7.796875 -13.640625 C 9.054688 -13.640625 10.179688 -13.347656 11.171875 -12.765625 C 12.171875 -12.179688 12.953125 -11.367188 13.515625 -10.328125 C 14.085938 -9.296875 14.375 -8.109375 14.375 -6.765625 Z M 7.796875 -12.078125 C 6.492188 -12.078125 5.398438 -11.660156 4.515625 -10.828125 C 3.628906 -9.992188 3.128906 -8.910156 3.015625 -7.578125 L 12.625 -7.578125 C 12.5 -8.910156 11.992188 -9.992188 11.109375 -10.828125 C 10.222656 -11.660156 9.117188 -12.078125 7.796875 -12.078125 Z M 7.796875 -12.078125 "/></g></g></g><g fill="#6b7280" fill-opacity="1"><g transform="translate(191.332776, 25.665664)"><g><path d="M 19.4375 -13.640625 C 21.132812 -13.640625 22.46875 -13.148438 23.4375 -12.171875 C 24.414062 -11.203125 24.90625 -9.765625 24.90625 -7.859375 L 24.90625 0 L 23.078125 0 L 23.078125 -7.671875 C 23.078125 -9.078125 22.734375 -10.148438 22.046875 -10.890625 C 21.367188 -11.628906 20.414062 -12 19.1875 -12 C 17.78125 -12 16.671875 -11.566406 15.859375 -10.703125 C 15.054688 -9.835938 14.65625 -8.640625 14.65625 -7.109375 L 14.65625 0 L 12.828125 0 L 12.828125 -7.671875 C 12.828125 -9.078125 12.488281 -10.148438 11.8125 -10.890625 C 11.132812 -11.628906 10.164062 -12 8.90625 -12 C 7.519531 -12 6.414062 -11.566406 5.59375 -10.703125 C 4.78125 -9.835938 4.375 -8.640625 4.375 -7.109375 L 4.375 0 L 2.546875 0 L 2.546875 -13.546875 L 4.296875 -13.546875 L 4.296875 -11.078125 C 4.773438 -11.898438 5.441406 -12.53125 6.296875 -12.96875 C 7.160156 -13.414062 8.148438 -13.640625 9.265625 -13.640625 C 10.398438 -13.640625 11.382812 -13.398438 12.21875 -12.921875 C 13.050781 -12.441406 13.671875 -11.734375 14.078125 -10.796875 C 14.578125 -11.679688 15.296875 -12.375 16.234375 -12.875 C 17.171875 -13.382812 18.238281 -13.640625 19.4375 -13.640625 Z M 19.4375 -13.640625 "/></g></g></g><g fill="#6b7280" fill-opacity="1"><g transform="translate(218.652209, 25.665664)"><g/></g></g><g fill="#6b7280" fill-opacity="1"><g transform="translate(225.398388, 25.665664)"><g><path d="M 8.15625 0.125 C 6.820312 0.125 5.625 -0.164062 4.5625 -0.75 C 3.507812 -1.332031 2.679688 -2.148438 2.078125 -3.203125 C 1.484375 -4.265625 1.1875 -5.453125 1.1875 -6.765625 C 1.1875 -8.085938 1.484375 -9.269531 2.078125 -10.3125 C 2.679688 -11.363281 3.507812 -12.179688 4.5625 -12.765625 C 5.625 -13.347656 6.820312 -13.640625 8.15625 -13.640625 C 9.320312 -13.640625 10.363281 -13.410156 11.28125 -12.953125 C 12.207031 -12.503906 12.9375 -11.84375 13.46875 -10.96875 L 12.109375 -10.046875 C 11.660156 -10.710938 11.09375 -11.210938 10.40625 -11.546875 C 9.71875 -11.878906 8.96875 -12.046875 8.15625 -12.046875 C 7.175781 -12.046875 6.296875 -11.828125 5.515625 -11.390625 C 4.742188 -10.953125 4.132812 -10.328125 3.6875 -9.515625 C 3.25 -8.710938 3.03125 -7.796875 3.03125 -6.765625 C 3.03125 -5.722656 3.25 -4.800781 3.6875 -4 C 4.132812 -3.207031 4.742188 -2.59375 5.515625 -2.15625 C 6.296875 -1.71875 7.175781 -1.5 8.15625 -1.5 C 8.96875 -1.5 9.71875 -1.660156 10.40625 -1.984375 C 11.09375 -2.304688 11.660156 -2.800781 12.109375 -3.46875 L 13.46875 -2.546875 C 12.9375 -1.671875 12.207031 -1.003906 11.28125 -0.546875 C 10.351562 -0.0976562 9.3125 0.125 8.15625 0.125 Z M 8.15625 0.125 "/></g></g></g><g fill="#6b7280" fill-opacity="1"><g transform="translate(239.894935, 25.665664)"><g><path d="M 7.28125 -13.640625 C 9.050781 -13.640625 10.40625 -13.195312 11.34375 -12.3125 C 12.289062 -11.4375 12.765625 -10.128906 12.765625 -8.390625 L 12.765625 0 L 11.015625 0 L 11.015625 -2.109375 C 10.609375 -1.410156 10.003906 -0.863281 9.203125 -0.46875 C 8.410156 -0.0703125 7.460938 0.125 6.359375 0.125 C 4.847656 0.125 3.644531 -0.234375 2.75 -0.953125 C 1.863281 -1.671875 1.421875 -2.625 1.421875 -3.8125 C 1.421875 -4.957031 1.832031 -5.878906 2.65625 -6.578125 C 3.488281 -7.285156 4.816406 -7.640625 6.640625 -7.640625 L 10.9375 -7.640625 L 10.9375 -8.46875 C 10.9375 -9.632812 10.609375 -10.519531 9.953125 -11.125 C 9.304688 -11.738281 8.359375 -12.046875 7.109375 -12.046875 C 6.242188 -12.046875 5.414062 -11.90625 4.625 -11.625 C 3.84375 -11.34375 3.164062 -10.953125 2.59375 -10.453125 L 1.78125 -11.8125 C 2.46875 -12.394531 3.289062 -12.84375 4.25 -13.15625 C 5.207031 -13.476562 6.21875 -13.640625 7.28125 -13.640625 Z M 6.640625 -1.3125 C 7.671875 -1.3125 8.554688 -1.546875 9.296875 -2.015625 C 10.035156 -2.492188 10.582031 -3.175781 10.9375 -4.0625 L 10.9375 -6.28125 L 6.6875 -6.28125 C 4.375 -6.28125 3.21875 -5.472656 3.21875 -3.859375 C 3.21875 -3.066406 3.515625 -2.441406 4.109375 -1.984375 C 4.710938 -1.535156 5.554688 -1.3125 6.640625 -1.3125 Z M 6.640625 -1.3125 "/></g></g></g><g fill="#6b7280" fill-opacity="1"><g transform="translate(255.1382, 25.665664)"><g><path d="M 14.90625 -19.109375 L 14.90625 0 L 13.15625 0 L 13.15625 -2.671875 C 12.601562 -1.765625 11.875 -1.070312 10.96875 -0.59375 C 10.070312 -0.113281 9.0625 0.125 7.9375 0.125 C 6.664062 0.125 5.515625 -0.164062 4.484375 -0.75 C 3.453125 -1.332031 2.644531 -2.144531 2.0625 -3.1875 C 1.476562 -4.238281 1.1875 -5.429688 1.1875 -6.765625 C 1.1875 -8.109375 1.476562 -9.300781 2.0625 -10.34375 C 2.644531 -11.394531 3.453125 -12.207031 4.484375 -12.78125 C 5.515625 -13.351562 6.664062 -13.640625 7.9375 -13.640625 C 9.03125 -13.640625 10.019531 -13.410156 10.90625 -12.953125 C 11.789062 -12.503906 12.515625 -11.84375 13.078125 -10.96875 L 13.078125 -19.109375 Z M 8.078125 -1.5 C 9.023438 -1.5 9.878906 -1.71875 10.640625 -2.15625 C 11.410156 -2.59375 12.015625 -3.210938 12.453125 -4.015625 C 12.890625 -4.828125 13.109375 -5.742188 13.109375 -6.765625 C 13.109375 -7.796875 12.890625 -8.710938 12.453125 -9.515625 C 12.015625 -10.328125 11.410156 -10.953125 10.640625 -11.390625 C 9.878906 -11.828125 9.023438 -12.046875 8.078125 -12.046875 C 7.117188 -12.046875 6.257812 -11.828125 5.5 -11.390625 C 4.738281 -10.953125 4.132812 -10.328125 3.6875 -9.515625 C 3.25 -8.710938 3.03125 -7.796875 3.03125 -6.765625 C 3.03125 -5.742188 3.25 -4.828125 3.6875 -4.015625 C 4.132812 -3.210938 4.738281 -2.59375 5.5 -2.15625 C 6.257812 -1.71875 7.117188 -1.5 8.078125 -1.5 Z M 8.078125 -1.5 "/></g></g></g><g fill="#6b7280" fill-opacity="1"><g transform="translate(272.595867, 25.665664)"><g><path d="M 7.28125 -13.640625 C 9.050781 -13.640625 10.40625 -13.195312 11.34375 -12.3125 C 12.289062 -11.4375 12.765625 -10.128906 12.765625 -8.390625 L 12.765625 0 L 11.015625 0 L 11.015625 -2.109375 C 10.609375 -1.410156 10.003906 -0.863281 9.203125 -0.46875 C 8.410156 -0.0703125 7.460938 0.125 6.359375 0.125 C 4.847656 0.125 3.644531 -0.234375 2.75 -0.953125 C 1.863281 -1.671875 1.421875 -2.625 1.421875 -3.8125 C 1.421875 -4.957031 1.832031 -5.878906 2.65625 -6.578125 C 3.488281 -7.285156 4.816406 -7.640625 6.640625 -7.640625 L 10.9375 -7.640625 L 10.9375 -8.46875 C 10.9375 -9.632812 10.609375 -10.519531 9.953125 -11.125 C 9.304688 -11.738281 8.359375 -12.046875 7.109375 -12.046875 C 6.242188 -12.046875 5.414062 -11.90625 4.625 -11.625 C 3.84375 -11.34375 3.164062 -10.953125 2.59375 -10.453125 L 1.78125 -11.8125 C 2.46875 -12.394531 3.289062 -12.84375 4.25 -13.15625 C 5.207031 -13.476562 6.21875 -13.640625 7.28125 -13.640625 Z M 6.640625 -1.3125 C 7.671875 -1.3125 8.554688 -1.546875 9.296875 -2.015625 C 10.035156 -2.492188 10.582031 -3.175781 10.9375 -4.0625 L 10.9375 -6.28125 L 6.6875 -6.28125 C 4.375 -6.28125 3.21875 -5.472656 3.21875 -3.859375 C 3.21875 -3.066406 3.515625 -2.441406 4.109375 -1.984375 C 4.710938 -1.535156 5.554688 -1.3125 6.640625 -1.3125 Z M 6.640625 -1.3125 "/></g></g></g><g fill="#6b7280" fill-opacity="1"><g transform="translate(287.787639, 25.665664)"><g/></g></g><g fill="#6b7280" fill-opacity="1"><g transform="translate(294.533817, 25.665664)"><g><path d="M 19.4375 -13.640625 C 21.132812 -13.640625 22.46875 -13.148438 23.4375 -12.171875 C 24.414062 -11.203125 24.90625 -9.765625 24.90625 -7.859375 L 24.90625 0 L 23.078125 0 L 23.078125 -7.671875 C 23.078125 -9.078125 22.734375 -10.148438 22.046875 -10.890625 C 21.367188 -11.628906 20.414062 -12 19.1875 -12 C 17.78125 -12 16.671875 -11.566406 15.859375 -10.703125 C 15.054688 -9.835938 14.65625 -8.640625 14.65625 -7.109375 L 14.65625 0 L 12.828125 0 L 12.828125 -7.671875 C 12.828125 -9.078125 12.488281 -10.148438 11.8125 -10.890625 C 11.132812 -11.628906 10.164062 -12 8.90625 -12 C 7.519531 -12 6.414062 -11.566406 5.59375 -10.703125 C 4.78125 -9.835938 4.375 -8.640625 4.375 -7.109375 L 4.375 0 L 2.546875 0 L 2.546875 -13.546875 L 4.296875 -13.546875 L 4.296875 -11.078125 C 4.773438 -11.898438 5.441406 -12.53125 6.296875 -12.96875 C 7.160156 -13.414062 8.148438 -13.640625 9.265625 -13.640625 C 10.398438 -13.640625 11.382812 -13.398438 12.21875 -12.921875 C 13.050781 -12.441406 13.671875 -11.734375 14.078125 -10.796875 C 14.578125 -11.679688 15.296875 -12.375 16.234375 -12.875 C 17.171875 -13.382812 18.238281 -13.640625 19.4375 -13.640625 Z M 19.4375 -13.640625 "/></g></g></g><g fill="#6b7280" fill-opacity="1"><g transform="translate(321.90476, 25.665664)"><g><path d="M 8.078125 0.125 C 6.773438 0.125 5.597656 -0.164062 4.546875 -0.75 C 3.503906 -1.34375 2.679688 -2.164062 2.078125 -3.21875 C 1.484375 -4.269531 1.1875 -5.453125 1.1875 -6.765625 C 1.1875 -8.085938 1.484375 -9.269531 2.078125 -10.3125 C 2.679688 -11.363281 3.503906 -12.179688 4.546875 -12.765625 C 5.597656 -13.347656 6.773438 -13.640625 8.078125 -13.640625 C 9.390625 -13.640625 10.566406 -13.347656 11.609375 -12.765625 C 12.660156 -12.179688 13.476562 -11.363281 14.0625 -10.3125 C 14.65625 -9.269531 14.953125 -8.085938 14.953125 -6.765625 C 14.953125 -5.453125 14.65625 -4.269531 14.0625 -3.21875 C 13.476562 -2.164062 12.660156 -1.34375 11.609375 -0.75 C 10.566406 -0.164062 9.390625 0.125 8.078125 0.125 Z M 8.078125 -1.5 C 9.046875 -1.5 9.910156 -1.71875 10.671875 -2.15625 C 11.429688 -2.59375 12.023438 -3.210938 12.453125 -4.015625 C 12.890625 -4.828125 13.109375 -5.742188 13.109375 -6.765625 C 13.109375 -7.796875 12.890625 -8.710938 12.453125 -9.515625 C 12.023438 -10.328125 11.429688 -10.953125 10.671875 -11.390625 C 9.910156 -11.828125 9.046875 -12.046875 8.078125 -12.046875 C 7.117188 -12.046875 6.257812 -11.828125 5.5 -11.390625 C 4.738281 -10.953125 4.132812 -10.328125 3.6875 -9.515625 C 3.25 -8.710938 3.03125 -7.796875 3.03125 -6.765625 C 3.03125 -5.742188 3.25 -4.828125 3.6875 -4.015625 C 4.132812 -3.210938 4.738281 -2.59375 5.5 -2.15625 C 6.257812 -1.71875 7.117188 -1.5 8.078125 -1.5 Z M 8.078125 -1.5 "/></g></g></g><g fill="#6b7280" fill-opacity="1"><g transform="translate(337.662897, 25.665664)"><g><path d="M 13.9375 -13.546875 L 7.90625 0 L 6.03125 0 L 0.03125 -13.546875 L 1.9375 -13.546875 L 7 -2.015625 L 12.125 -13.546875 Z M 13.9375 -13.546875 "/></g></g></g><g fill="#6b7280" fill-opacity="1"><g transform="translate(351.618717, 25.665664)"><g><path d="M 2.546875 -13.546875 L 4.375 -13.546875 L 4.375 0 L 2.546875 0 Z M 3.484375 -16.5 C 3.097656 -16.5 2.773438 -16.628906 2.515625 -16.890625 C 2.265625 -17.148438 2.140625 -17.457031 2.140625 -17.8125 C 2.140625 -18.15625 2.265625 -18.457031 2.515625 -18.71875 C 2.773438 -18.976562 3.097656 -19.109375 3.484375 -19.109375 C 3.859375 -19.109375 4.171875 -18.984375 4.421875 -18.734375 C 4.679688 -18.484375 4.8125 -18.1875 4.8125 -17.84375 C 4.8125 -17.46875 4.679688 -17.148438 4.421875 -16.890625 C 4.171875 -16.628906 3.859375 -16.5 3.484375 -16.5 Z M 3.484375 -16.5 "/></g></g></g><g fill="#6b7280" fill-opacity="1"><g transform="translate(358.545147, 25.665664)"><g><path d="M 19.4375 -13.640625 C 21.132812 -13.640625 22.46875 -13.148438 23.4375 -12.171875 C 24.414062 -11.203125 24.90625 -9.765625 24.90625 -7.859375 L 24.90625 0 L 23.078125 0 L 23.078125 -7.671875 C 23.078125 -9.078125 22.734375 -10.148438 22.046875 -10.890625 C 21.367188 -11.628906 20.414062 -12 19.1875 -12 C 17.78125 -12 16.671875 -11.566406 15.859375 -10.703125 C 15.054688 -9.835938 14.65625 -8.640625 14.65625 -7.109375 L 14.65625 0 L 12.828125 0 L 12.828125 -7.671875 C 12.828125 -9.078125 12.488281 -10.148438 11.8125 -10.890625 C 11.132812 -11.628906 10.164062 -12 8.90625 -12 C 7.519531 -12 6.414062 -11.566406 5.59375 -10.703125 C 4.78125 -9.835938 4.375 -8.640625 4.375 -7.109375 L 4.375 0 L 2.546875 0 L 2.546875 -13.546875 L 4.296875 -13.546875 L 4.296875 -11.078125 C 4.773438 -11.898438 5.441406 -12.53125 6.296875 -12.96875 C 7.160156 -13.414062 8.148438 -13.640625 9.265625 -13.640625 C 10.398438 -13.640625 11.382812 -13.398438 12.21875 -12.921875 C 13.050781 -12.441406 13.671875 -11.734375 14.078125 -10.796875 C 14.578125 -11.679688 15.296875 -12.375 16.234375 -12.875 C 17.171875 -13.382812 18.238281 -13.640625 19.4375 -13.640625 Z M 19.4375 -13.640625 "/></g></g></g><g fill="#6b7280" fill-opacity="1"><g transform="translate(385.91609, 25.665664)"><g><path d="M 14.34375 -6.203125 L 3.015625 -6.203125 C 3.117188 -4.796875 3.660156 -3.660156 4.640625 -2.796875 C 5.617188 -1.929688 6.851562 -1.5 8.34375 -1.5 C 9.1875 -1.5 9.957031 -1.644531 10.65625 -1.9375 C 11.363281 -2.238281 11.972656 -2.679688 12.484375 -3.265625 L 13.515625 -2.078125 C 12.921875 -1.359375 12.171875 -0.8125 11.265625 -0.4375 C 10.359375 -0.0625 9.367188 0.125 8.296875 0.125 C 6.898438 0.125 5.664062 -0.164062 4.59375 -0.75 C 3.519531 -1.34375 2.679688 -2.164062 2.078125 -3.21875 C 1.484375 -4.269531 1.1875 -5.453125 1.1875 -6.765625 C 1.1875 -8.085938 1.472656 -9.269531 2.046875 -10.3125 C 2.617188 -11.363281 3.40625 -12.179688 4.40625 -12.765625 C 5.414062 -13.347656 6.546875 -13.640625 7.796875 -13.640625 C 9.054688 -13.640625 10.179688 -13.347656 11.171875 -12.765625 C 12.171875 -12.179688 12.953125 -11.367188 13.515625 -10.328125 C 14.085938 -9.296875 14.375 -8.109375 14.375 -6.765625 Z M 7.796875 -12.078125 C 6.492188 -12.078125 5.398438 -11.660156 4.515625 -10.828125 C 3.628906 -9.992188 3.128906 -8.910156 3.015625 -7.578125 L 12.625 -7.578125 C 12.5 -8.910156 11.992188 -9.992188 11.109375 -10.828125 C 10.222656 -11.660156 9.117188 -12.078125 7.796875 -12.078125 Z M 7.796875 -12.078125 "/></g></g></g><g fill="#6b7280" fill-opacity="1"><g transform="translate(401.468336, 25.665664)"><g><path d="M 9.453125 -13.640625 C 11.148438 -13.640625 12.5 -13.144531 13.5 -12.15625 C 14.507812 -11.175781 15.015625 -9.742188 15.015625 -7.859375 L 15.015625 0 L 13.1875 0 L 13.1875 -7.671875 C 13.1875 -9.078125 12.832031 -10.148438 12.125 -10.890625 C 11.425781 -11.628906 10.421875 -12 9.109375 -12 C 7.648438 -12 6.492188 -11.566406 5.640625 -10.703125 C 4.796875 -9.835938 4.375 -8.640625 4.375 -7.109375 L 4.375 0 L 2.546875 0 L 2.546875 -13.546875 L 4.296875 -13.546875 L 4.296875 -11.046875 C 4.796875 -11.867188 5.488281 -12.503906 6.375 -12.953125 C 7.257812 -13.410156 8.285156 -13.640625 9.453125 -13.640625 Z M 9.453125 -13.640625 "/></g></g></g><g fill="#6b7280" fill-opacity="1"><g transform="translate(418.900249, 25.665664)"><g><path d="M 9.6875 -0.828125 C 9.34375 -0.515625 8.914062 -0.273438 8.40625 -0.109375 C 7.894531 0.046875 7.367188 0.125 6.828125 0.125 C 5.554688 0.125 4.578125 -0.21875 3.890625 -0.90625 C 3.203125 -1.59375 2.859375 -2.5625 2.859375 -3.8125 L 2.859375 -12 L 0.4375 -12 L 0.4375 -13.546875 L 2.859375 -13.546875 L 2.859375 -16.5 L 4.6875 -16.5 L 4.6875 -13.546875 L 8.8125 -13.546875 L 8.8125 -12 L 4.6875 -12 L 4.6875 -3.90625 C 4.6875 -3.101562 4.882812 -2.488281 5.28125 -2.0625 C 5.6875 -1.644531 6.269531 -1.4375 7.03125 -1.4375 C 7.40625 -1.4375 7.769531 -1.492188 8.125 -1.609375 C 8.476562 -1.734375 8.78125 -1.910156 9.03125 -2.140625 Z M 9.6875 -0.828125 "/></g></g></g><g fill="#6b7280" fill-opacity="1"><g transform="translate(428.864917, 25.665664)"><g><path d="M 8.078125 0.125 C 6.773438 0.125 5.597656 -0.164062 4.546875 -0.75 C 3.503906 -1.34375 2.679688 -2.164062 2.078125 -3.21875 C 1.484375 -4.269531 1.1875 -5.453125 1.1875 -6.765625 C 1.1875 -8.085938 1.484375 -9.269531 2.078125 -10.3125 C 2.679688 -11.363281 3.503906 -12.179688 4.546875 -12.765625 C 5.597656 -13.347656 6.773438 -13.640625 8.078125 -13.640625 C 9.390625 -13.640625 10.566406 -13.347656 11.609375 -12.765625 C 12.660156 -12.179688 13.476562 -11.363281 14.0625 -10.3125 C 14.65625 -9.269531 14.953125 -8.085938 14.953125 -6.765625 C 14.953125 -5.453125 14.65625 -4.269531 14.0625 -3.21875 C 13.476562 -2.164062 12.660156 -1.34375 11.609375 -0.75 C 10.566406 -0.164062 9.390625 0.125 8.078125 0.125 Z M 8.078125 -1.5 C 9.046875 -1.5 9.910156 -1.71875 10.671875 -2.15625 C 11.429688 -2.59375 12.023438 -3.210938 12.453125 -4.015625 C 12.890625 -4.828125 13.109375 -5.742188 13.109375 -6.765625 C 13.109375 -7.796875 12.890625 -8.710938 12.453125 -9.515625 C 12.023438 -10.328125 11.429688 -10.953125 10.671875 -11.390625 C 9.910156 -11.828125 9.046875 -12.046875 8.078125 -12.046875 C 7.117188 -12.046875 6.257812 -11.828125 5.5 -11.390625 C 4.738281 -10.953125 4.132812 -10.328125 3.6875 -9.515625 C 3.25 -8.710938 3.03125 -7.796875 3.03125 -6.765625 C 3.03125 -5.742188 3.25 -4.828125 3.6875 -4.015625 C 4.132812 -3.210938 4.738281 -2.59375 5.5 -2.15625 C 6.257812 -1.71875 7.117188 -1.5 8.078125 -1.5 Z M 8.078125 -1.5 "/></g></g></g><g fill="#6b7280" fill-opacity="1"><g transform="translate(444.623053, 25.665664)"><g><path d="M 2.734375 0.125 C 2.347656 0.125 2.019531 -0.0078125 1.75 -0.28125 C 1.488281 -0.550781 1.359375 -0.882812 1.359375 -1.28125 C 1.359375 -1.675781 1.488281 -2.003906 1.75 -2.265625 C 2.019531 -2.535156 2.347656 -2.671875 2.734375 -2.671875 C 3.109375 -2.671875 3.429688 -2.535156 3.703125 -2.265625 C 3.984375 -2.003906 4.125 -1.675781 4.125 -1.28125 C 4.125 -0.882812 3.984375 -0.550781 3.703125 -0.28125 C 3.429688 -0.0078125 3.109375 0.125 2.734375 0.125 Z M 2.734375 0.125 "/></g></g></g><g clip-path="url(#bffbd5dc69)"><g fill="#6b7280" fill-opacity="1"><g transform="translate(450.086214, 25.665664)"><g/></g></g></g></g></g><g transform="matrix(1, 0, 0, 1, 60, 258)"><g clip-path="url(#a19c5403af)"><g fill="#284d97" fill-opacity="1"><g transform="translate(-0.00000226, 119.610997)"><g><path d="M 69.625 0 L 69.625 -46.28125 L 68.890625 -46.28125 L 53.359375 0 L 40.890625 0 L 25.359375 -46.28125 L 24.625 -46.28125 L 24.625 0 L 7.5 0 L 7.5 -72.6875 L 32.75 -72.6875 L 47.125 -30.75 L 47.859375 -30.75 L 62.125 -72.6875 L 87.265625 -72.6875 L 87.265625 0 Z M 69.625 0 "/></g></g></g><g fill="#284d97" fill-opacity="1"><g transform="translate(94.764248, 119.610997)"><g><path d="M 37.40625 0.84375 C 27.1875 0.84375 19.910156 -0.226562 15.578125 -2.375 C 11.253906 -4.519531 8.546875 -7.953125 7.453125 -12.671875 C 6.359375 -17.390625 5.8125 -25.28125 5.8125 -36.34375 C 5.8125 -47.40625 6.359375 -55.296875 7.453125 -60.015625 C 8.546875 -64.734375 11.253906 -68.164062 15.578125 -70.3125 C 19.910156 -72.457031 27.1875 -73.53125 37.40625 -73.53125 C 47.613281 -73.53125 54.882812 -72.457031 59.21875 -70.3125 C 63.550781 -68.164062 66.242188 -64.734375 67.296875 -60.015625 C 68.359375 -55.296875 68.890625 -47.40625 68.890625 -36.34375 C 68.890625 -25.28125 68.359375 -17.390625 67.296875 -12.671875 C 66.242188 -7.953125 63.550781 -4.519531 59.21875 -2.375 C 54.882812 -0.226562 47.613281 0.84375 37.40625 0.84375 Z M 37.40625 -14.046875 C 41.976562 -14.046875 45.039062 -14.414062 46.59375 -15.15625 C 48.144531 -15.894531 49.128906 -17.601562 49.546875 -20.28125 C 49.972656 -22.957031 50.1875 -28.3125 50.1875 -36.34375 C 50.1875 -44.375 49.972656 -49.726562 49.546875 -52.40625 C 49.128906 -55.082031 48.144531 -56.789062 46.59375 -57.53125 C 45.039062 -58.269531 41.976562 -58.640625 37.40625 -58.640625 C 32.820312 -58.640625 29.71875 -58.269531 28.09375 -57.53125 C 26.476562 -56.789062 25.457031 -55.046875 25.03125 -52.296875 C 24.613281 -49.546875 24.40625 -44.226562 24.40625 -36.34375 C 24.40625 -28.457031 24.613281 -23.140625 25.03125 -20.390625 C 25.457031 -17.640625 26.476562 -15.894531 28.09375 -15.15625 C 29.71875 -14.414062 32.820312 -14.046875 37.40625 -14.046875 Z M 37.40625 -14.046875 "/></g></g></g><g fill="#284d97" fill-opacity="1"><g transform="translate(168.399239, 119.610997)"><g><path d="M 22.609375 0 L 1.0625 -72.6875 L 19.859375 -72.6875 L 34.65625 -20.390625 L 35.5 -20.390625 L 50.1875 -72.6875 L 68.671875 -72.6875 L 47.015625 0 Z M 22.609375 0 "/></g></g></g><g fill="#284d97" fill-opacity="1"><g transform="translate(238.12545, 119.610997)"><g><path d="M 69.625 0 L 69.625 -46.28125 L 68.890625 -46.28125 L 53.359375 0 L 40.890625 0 L 25.359375 -46.28125 L 24.625 -46.28125 L 24.625 0 L 7.5 0 L 7.5 -72.6875 L 32.75 -72.6875 L 47.125 -30.75 L 47.859375 -30.75 L 62.125 -72.6875 L 87.265625 -72.6875 L 87.265625 0 Z M 69.625 0 "/></g></g></g><g fill="#284d97" fill-opacity="1"><g transform="translate(332.889701, 119.610997)"><g><path d="M 53.5625 0 L 49.234375 -13.734375 L 23.34375 -13.734375 L 19.234375 0 L 0.84375 0 L 24.09375 -72.6875 L 49.03125 -72.6875 L 72.265625 0 Z M 36.453125 -56.421875 L 35.921875 -56.421875 L 27.578125 -28.640625 L 44.90625 -28.640625 Z M 36.453125 -56.421875 "/></g></g></g><g fill="#284d97" fill-opacity="1"><g transform="translate(405.996543, 119.610997)"><g><path d="M 44.375 0.53125 C 42.1875 0.738281 39.6875 0.84375 36.875 0.84375 C 26.800781 0.84375 19.632812 -0.210938 15.375 -2.328125 C 11.113281 -4.441406 8.453125 -7.859375 7.390625 -12.578125 C 6.335938 -17.296875 5.8125 -25.21875 5.8125 -36.34375 C 5.8125 -47.476562 6.335938 -55.40625 7.390625 -60.125 C 8.453125 -64.84375 11.113281 -68.253906 15.375 -70.359375 C 19.632812 -72.472656 26.800781 -73.53125 36.875 -73.53125 C 46.945312 -73.53125 54.128906 -72.472656 58.421875 -70.359375 C 62.722656 -68.253906 65.414062 -64.820312 66.5 -60.0625 C 67.59375 -55.3125 68.140625 -47.40625 68.140625 -36.34375 C 68.140625 -29.71875 67.960938 -24.453125 67.609375 -20.546875 C 67.265625 -16.640625 66.5625 -13.347656 65.5 -10.671875 C 64.445312 -7.992188 62.828125 -5.878906 60.640625 -4.328125 L 71.734375 11.515625 L 71.734375 12.15625 L 52.1875 12.15625 Z M 36.875 -13.734375 C 41.382812 -13.734375 44.429688 -14.101562 46.015625 -14.84375 C 47.597656 -15.582031 48.597656 -17.34375 49.015625 -20.125 C 49.441406 -22.90625 49.65625 -28.3125 49.65625 -36.34375 C 49.65625 -44.375 49.441406 -49.78125 49.015625 -52.5625 C 48.597656 -55.34375 47.597656 -57.101562 46.015625 -57.84375 C 44.429688 -58.582031 41.382812 -58.953125 36.875 -58.953125 C 32.363281 -58.953125 29.332031 -58.582031 27.78125 -57.84375 C 26.238281 -57.101562 25.253906 -55.34375 24.828125 -52.5625 C 24.398438 -49.78125 24.1875 -44.375 24.1875 -36.34375 C 24.1875 -28.3125 24.398438 -22.90625 24.828125 -20.125 C 25.253906 -17.34375 26.238281 -15.582031 27.78125 -14.84375 C 29.332031 -14.101562 32.363281 -13.734375 36.875 -13.734375 Z M 36.875 -13.734375 "/></g></g></g><g fill="#284d97" fill-opacity="1"><g transform="translate(479.959989, 119.610997)"><g/></g></g></g></g><path stroke-linecap="butt" transform="matrix(0.75, 0, 0, 0.75, 68.38206, 392.493637)" fill="none" stroke-linejoin="miter" d="M 0.00100362 6.998068 L 625.261447 6.998068 " stroke="#284d97" stroke-width="14" stroke-opacity="1" stroke-miterlimit="4"/><path stroke-linecap="butt" transform="matrix(0.75, 0, 0, 0.75, 304.335251, 151.657163)" fill="none" stroke-linejoin="miter" d="M 6.500915 -0.00121751 L 6.500915 49.623785 L 60.204042 49.623785 " stroke="#ffffff" stroke-width="13" stroke-opacity="1" stroke-miterlimit="4"/></svg>